<svg height="512" viewBox="0 0 512 512" width="512" xmlns="http://www.w3.org/2000/svg"><g id="filled_outline" data-name="filled outline"><path d="m406.091 456a87.961 87.961 0 0 0 81.909-56h-62.2l-27.709-16v-32l27.709-16h62.2a87.97 87.97 0 0 0 -155.61-16h-60.39v96h60.39a87.87 87.87 0 0 0 73.701 40z" fill="#d9d9d9"/><path d="m319.614 352h-39.614v32h39.614a84.806 84.806 0 0 1 0-32z" fill="#cdcdcd"/><path d="m390.086 429.68a8 8 0 0 1 -2.281-.336 64.017 64.017 0 0 1 0-122.688 8 8 0 1 1 4.562 15.328 48.028 48.028 0 0 0 0 92.032 8 8 0 0 1 -2.281 15.664z" fill="#cdcdcd"/><path d="m453.512 384v-32l-27.712-16-27.713 16v32l27.713 16z" fill="#b9b9b9"/><path d="m398.087 352v9.239l47.425 27.379 8-4.618v-9.241l-47.424-27.378z" fill="#cdcdcd"/><path d="m280 424h-56v-137.687l8-6.313a48 48 0 0 1 48 48z" fill="#eaeae8"/><path d="m80 416v-72h-56v104a16 16 0 0 0 16 16h216z" fill="#fec9a3"/><path d="m80 344h-56v-16a48 48 0 0 1 48-48l8-1z" fill="#eaeae8"/><path d="m96 176h-16a24 24 0 0 1 -24-24 24 24 0 0 1 24-24h16z" fill="#f7bb8f"/><path d="m208 176h16a24 24 0 0 0 24-24 24 24 0 0 0 -24-24h-16z" fill="#f7bb8f"/><path d="m232 416v-136l-48-16h-64l-48 16v136z" fill="#4298d1"/><path d="m176 376h16v16h-16z" fill="#3981b7"/><path d="m72 416v-8l-16 8 16 48h176a15.816 15.816 0 0 0 4.836-.825z" fill="#f7bb8f"/><path d="m120 224v40l32 48 32-48v-40z" fill="#fec9a3"/><path d="m120 239.368a63.63 63.63 0 0 0 64 0v-15.368h-64z" fill="#f7bb8f"/><path d="m152 240a64 64 0 0 1 -64-64v-72h128v72a64 64 0 0 1 -64 64z" fill="#fec9a3"/><circle cx="120" cy="160" fill="#905638" r="8"/><circle cx="184" cy="160" fill="#905638" r="8"/><path d="m160 184h-16a7.992 7.992 0 0 1 -7.586-10.531l8-24a8 8 0 1 1 15.172 5.062l-4.486 13.469h4.9a8 8 0 0 1 0 16z" fill="#905638"/><path d="m216 104h-128v-32a32 32 0 0 1 32-32h64a32 32 0 0 1 32 32z" fill="#3981b7"/><path d="m152 215.984a30.528 30.528 0 0 1 -21.656-8.953 8 8 0 0 1 11.312-11.312 14.646 14.646 0 0 0 20.688 0 8 8 0 0 1 11.312 11.312 30.528 30.528 0 0 1 -21.656 8.953z" fill="#905638"/><g fill="#3981b7"><path d="m152 424a8 8 0 0 1 -8-8v-96a8 8 0 0 1 16 0v96a8 8 0 0 1 -8 8z"/><path d="m128 336 24-24-32-56-24 16z"/><path d="m176 336-24-24 32-56 24 16z"/></g><path d="m88 104h128v24h-128z" fill="#f7bb8f"/><path d="m88 104 6.111 12.223a64.723 64.723 0 0 0 57.889 35.777 64.723 64.723 0 0 0 57.889-35.777l6.111-12.223z" fill="#69b9e7"/><path d="m232 344v72h-96l-32-16-32 16 16 48h176a16 16 0 0 0 16-16v-104z" fill="#fec9a3"/><path d="m152 215.985a30.531 30.531 0 0 0 21.656-8.955 8 8 0 0 0 -11.312-11.314 14.646 14.646 0 0 1 -20.688 0 8 8 0 1 0 -11.312 11.314 30.531 30.531 0 0 0 21.656 8.955z"/><path d="m176 376h16v16h-16z"/><path d="m494.607 340.511a8 8 0 0 0 .843-7.424 95.884 95.884 0 0 0 -163.342-26.187c-1.359 1.646-2.673 3.351-3.93 5.1h-42.478a56.224 56.224 0 0 0 -52.35-39.984l-21.8-7.268-19.55-13.029v-15.886a72.06 72.06 0 0 0 31.545-51.833h.455a32 32 0 0 0 0-64v-48a40.045 40.045 0 0 0 -40-40h-64a40.045 40.045 0 0 0 -40 40v48a32 32 0 0 0 0 64h.455a72.06 72.06 0 0 0 31.545 51.833v15.886l-19.544 13.029-21.863 7.288a56.053 56.053 0 0 0 -54.593 55.964v120a24.028 24.028 0 0 0 24 24h224a24.028 24.028 0 0 0 24-24v-24h40.176a95.909 95.909 0 0 0 167.274-21.087 8 8 0 0 0 -7.45-10.913h-31.767l1.787-1.031.027-.016.044-.025c.077-.045.146-.1.221-.149a7.486 7.486 0 0 0 .636-.425c.1-.074.183-.159.276-.237.174-.146.35-.289.512-.451.12-.12.225-.253.337-.379s.243-.262.354-.406a7.987 7.987 0 0 0 .609-.915 8.229 8.229 0 0 0 .4-.816c.035-.081.063-.163.095-.244q.134-.339.234-.684c.024-.081.047-.161.067-.242a7.957 7.957 0 0 0 .175-.869c0-.021.009-.042.011-.064a8 8 0 0 0 .065-.977c0-.024 0-.047 0-.07v-32a8 8 0 0 0 -4-6.928l-1.85-1.072h31.767a8 8 0 0 0 6.607-3.489zm-270.607-204.511a16 16 0 0 1 0 32zm-144 32a16 16 0 0 1 0-32zm132.052 113.784 11.948 3.983v122.233h-64v-76.686l10.343 10.343a8 8 0 0 0 5.657 2.343 7.914 7.914 0 0 0 1.281-.1 8 8 0 0 0 5.874-4.318zm-60.052 14.091-24-42v-10a71.831 71.831 0 0 0 48 0v10zm45.687-21.136-23.878 47.761-11.831-11.831 24.715-43.254zm-101.687-202.739a24.028 24.028 0 0 1 24-24h64a24.028 24.028 0 0 1 24 24v24h-112zm107.056 40-.323.645a56.721 56.721 0 0 1 -101.466 0l-.323-.645zm-107.056 64v-42.295a72.075 72.075 0 0 0 22.885 18.382 8 8 0 1 0 7.7 3.378 72.56 72.56 0 0 0 14.581 3.732l-4.756 14.273a8 8 0 0 0 7.59 10.53h16a8 8 0 0 0 0-16h-4.9l2.746-8.239a72.741 72.741 0 0 0 19.567-4.3 8 8 0 1 0 7.7-3.378 72.075 72.075 0 0 0 22.887-18.378v42.295a56.027 56.027 0 0 1 -28.53 48.771 8.074 8.074 0 0 0 -1.064.6 55.878 55.878 0 0 1 -52.812 0 8.074 8.074 0 0 0 -1.064-.6 56.027 56.027 0 0 1 -28.53-48.771zm21.307 91.41 24.715 43.254-11.831 11.836-23.878-47.756zm-85.307 60.59a40.069 40.069 0 0 1 32-39.195v47.195h-32zm8 128a8.009 8.009 0 0 1 -8-8v-96h32v64c0 .046.006.091.007.137 0 .173.012.345.026.519.008.094.016.188.027.282.017.15.042.3.068.45.02.111.038.222.062.332s.061.244.094.365.068.259.109.386c.007.019.011.039.017.059l12.49 37.47zm40-112v-58.233l11.948-3.983 28.9 57.794a8 8 0 0 0 5.874 4.318 7.914 7.914 0 0 0 1.278.104 8 8 0 0 0 5.657-2.343l10.343-10.343v76.686h-6.111l-30.311-15.155a8 8 0 0 0 -7.156 0l-20.422 10.211zm192 40v64a8.009 8.009 0 0 1 -8 8h-170.234l-11.983-35.947 22.217-11.109 28.422 14.211a7.994 7.994 0 0 0 3.578.845h96a8 8 0 0 0 8-8v-64h32zm0-48h-32v-47.206a40.141 40.141 0 0 1 32 39.206zm16 24h22.447c-.238 2.693-.356 5.349-.356 8s.118 5.307.356 8h-22.447zm138.378-32c-.046 0-.091.008-.136.009-.257 0-.511.021-.764.05-.082.009-.163.017-.244.029a8.035 8.035 0 0 0 -1.821.488c-.077.03-.152.065-.228.1-.231.1-.456.211-.678.334-.042.023-.087.039-.129.063l-27.713 16c-.02.012-.037.027-.057.038a8.063 8.063 0 0 0 -.816.547c-.016.011-.029.025-.043.036a8 8 0 0 0 -.673.592c-.058.058-.115.116-.172.175q-.25.262-.48.55c-.053.067-.109.132-.16.2a7.983 7.983 0 0 0 -.5.758l-.041.07a7.952 7.952 0 0 0 -.4.813c-.035.081-.064.163-.1.244q-.132.339-.233.684c-.024.081-.047.161-.068.243a8.178 8.178 0 0 0 -.174.868c0 .021-.009.042-.012.064a7.806 7.806 0 0 0 -.064.977v.07 32a8 8 0 0 0 4 6.929l27.713 16c.008.005.017.008.025.012.186.106.381.192.574.283.122.057.24.125.365.176.181.074.37.128.556.188.144.047.284.1.43.143.2.054.412.086.619.123.132.025.261.061.395.078a8.076 8.076 0 0 0 1.044.069h48.939a79.908 79.908 0 0 1 -136.236 3.628 8 8 0 0 0 -6.7-3.628h-44.396v-16.003h31.614a8 8 0 0 0 7.868-9.448 76.814 76.814 0 0 1 0-29.1 8 8 0 0 0 -7.868-9.452h-31.614v-16h44.39a8 8 0 0 0 6.7-3.627 80.76 80.76 0 0 1 5.355-7.279 79.891 79.891 0 0 1 130.88 10.906zm-11.713 24 11.713-6.763 19.713 11.382v13.525zm23.426 32-11.713 6.763-19.713-11.382v-13.525z"/><path d="m387.808 306.651a64.022 64.022 0 0 0 0 122.7 8 8 0 1 0 4.564-15.336 48.021 48.021 0 0 1 0-92.026 8 8 0 0 0 -4.564-15.336z"/></g></svg>