<?xml version="1.0" encoding="UTF-8" standalone="no"?>
<svg width="25px" height="31px" viewBox="0 0 25 31" version="1.1" xmlns="http://www.w3.org/2000/svg" xmlns:xlink="http://www.w3.org/1999/xlink">
    <!-- Generator: sketchtool 45.2 (43514) - http://www.bohemiancoding.com/sketch -->
    <title>A2CD10DE-659F-4411-AC58-603FD8FEE78F</title>
    <desc>Created with sketchtool.</desc>
    <defs></defs>
    <g id="LANDING-EN" stroke="none" stroke-width="1" fill="none" fill-rule="evenodd">
        <g id="BUTTONS" transform="translate(-106.000000, -1194.000000)" fill="#FFFFFF">
            <g id="App-Download-" transform="translate(23.000000, 1190.000000)">
                <path d="M101.103906,4.84950086 C101.127373,5.73023332 101.065773,6.59996579 100.760707,7.43596496 C100.043507,9.39542968 98.7887753,10.8422949 96.7757773,11.5294276 C96.3416444,11.6775607 95.8613115,11.6914941 95.403712,11.7633607 C95.1573122,11.8007606 95.0891123,11.6790274 95.079579,11.446561 C95.0128457,9.99602909 95.5254452,8.73249701 96.3482444,7.58483148 C97.4372433,6.07123298 98.9383751,5.20883384 100.764373,4.89423415 C100.801773,4.88836749 100.834773,4.86490085 100.869973,4.84950086 L101.103906,4.84950086 Z M106.428488,14.9858441 C105.849155,15.5475769 105.263956,16.0528431 104.757956,16.6241092 C103.66309,17.8546413 103.223091,19.3330398 103.286157,20.9625049 C103.348491,22.5538366 103.84789,23.9794352 104.957422,25.152034 C105.563155,25.7951667 106.273021,26.3070329 107.059154,26.7074325 C107.218287,26.7895657 107.25862,26.8636323 107.196287,27.0454988 C106.399154,29.4075632 105.117289,31.4814278 103.453357,33.3206259 C102.615158,34.2460917 101.588492,34.8400911 100.288294,34.7088246 C99.763961,34.6552913 99.2403615,34.5049581 98.7402287,34.3304249 C97.9892961,34.0656919 97.2757634,33.7056256 96.4705642,33.5970923 C95.3888986,33.4511591 94.362233,33.6410923 93.359034,34.0407586 C92.8523012,34.2416917 92.347035,34.4462915 91.8285688,34.6112913 C90.6794367,34.9750243 89.6432377,34.7168912 88.7067719,33.9820919 C87.8773728,33.3308926 87.2342401,32.5088267 86.6241073,31.6647609 C85.0173756,29.4537631 83.93351,27.0058989 83.3761772,24.3285015 C82.9405777,22.2363036 82.8342444,20.1345724 83.4018439,18.0511744 C84.0163766,15.78811 85.2755087,13.9987784 87.4109732,12.9259128 C89.0881049,12.0825803 90.8253698,11.9080472 92.6073681,12.5951798 C93.1801008,12.8173796 93.7535669,13.0249127 94.324833,13.2485792 C94.9899657,13.5118456 95.6455651,13.5074456 96.3158311,13.2529792 C97.1048969,12.9537795 97.8954295,12.6479798 98.7006287,12.3920467 C101.470426,11.5069143 104.673623,12.5636465 106.377888,14.9044442 C106.405021,14.9425775 106.428488,14.9858441 106.428488,14.9858441 Z" id="Combined-Shape"></path>
            </g>
        </g>
    </g>
</svg>