<svg xmlns="http://www.w3.org/2000/svg" xmlns:xlink="http://www.w3.org/1999/xlink" width="264" height="553" viewBox="0 0 264 553">
    <defs>
        <path id="a" d="M111.801 33.202c-1.17 0-2.123.951-2.123 2.124 0 1.17.951 2.123 2.123 2.123h39.94c1.17 0 2.123-.95 2.123-2.123 0-1.17-.952-2.124-2.123-2.124h-39.94z"/>
        <path id="b" d="M112.228 514.414c0-11.03 8.941-19.97 19.97-19.97 11.03 0 19.97 8.94 19.97 19.97s-8.94 19.97-19.97 19.97c-11.029 0-19.97-8.94-19.97-19.97z"/>
        <linearGradient id="c" x1="50.573%" x2="50.573%" y1=".525%" y2="100.53%">
            <stop offset="0%" stop-color="#ECECEC"/>
            <stop offset="100%" stop-color="#FBFBFB"/>
        </linearGradient>
        <linearGradient id="e" x1="50.548%" x2="50.548%" y1="2.679%" y2="98.328%">
            <stop offset="0%" stop-color="#F2F2F2"/>
            <stop offset="100%" stop-color="#FFF"/>
        </linearGradient>
    </defs>
    <g fill="none" fill-rule="evenodd" transform="translate(0 -.025)">
        <path fill="#F6F6F6" d="M.752 48.559C.752 21.782 22.466.075 49.238.075h165.3c26.776 0 48.485 21.708 48.485 48.484v455.159c0 26.777-21.712 48.484-48.486 48.484H49.238c-26.777 0-48.486-21.707-48.486-48.484V48.558z"/>
        <use fill="#D8D8D8" xlink:href="#a"/>
        <mask id="d" fill="#fff">
            <use xlink:href="#b"/>
        </mask>
        <path fill="url(#c)" d="M112.228 514.414c0 11.03 8.941 19.97 19.97 19.97 11.03 0 19.97-8.94 19.97-19.97s-8.94-19.97-19.97-19.97c-11.029 0-19.97 8.94-19.97 19.97" mask="url(#d)"/>
        <path fill="url(#e)" d="M111.32 514.414c0 11.53 9.346 20.88 20.877 20.88 11.532 0 20.88-9.35 20.88-20.88s-9.348-20.88-20.88-20.88c-11.53 0-20.878 9.35-20.878 20.88m1.818 0c0-10.529 8.534-19.062 19.06-19.062 10.527 0 19.062 8.533 19.062 19.062 0 10.527-8.535 19.06-19.062 19.06-10.526 0-19.06-8.533-19.06-19.06" mask="url(#d)"/>
    </g>
</svg>
