<?xml version="1.0" encoding="iso-8859-1"?>
<!-- Generator: Adobe Illustrator 19.0.0, SVG Export Plug-In . SVG Version: 6.00 Build 0)  -->
<svg version="1.1" id="Capa_1" xmlns="http://www.w3.org/2000/svg" xmlns:xlink="http://www.w3.org/1999/xlink" x="0px" y="0px"
	 viewBox="0 0 512 512" style="enable-background:new 0 0 512 512;" xml:space="preserve">
<polygon style="fill:#FFB64F;" points="351.511,50.523 351.511,14.046 291.711,14.046 291.711,0.003 172.101,0.003 172.101,46.05 
	117.851,52.266 100.689,179.336 201.984,311.502 197.471,512 385.984,512 383.836,322.991 411.311,267.898 411.311,50.523 "/>
<g>
	<path style="fill:#FFD8A6;" d="M291.71,0v115.86c0,16.51-13.39,29.9-29.9,29.9c-16.36,0-29.63-13.11-29.9-29.39
		c-0.01-0.16-0.01-0.34-0.01-0.51V0H291.71z"/>
	<path style="fill:#FFD8A6;" d="M231.91,0v129.17c0,16.52-13.4,29.91-29.9,29.91c-14.58,0-26.73-10.44-29.37-24.25l-0.54-88.78V0
		H231.91z"/>
	<path style="fill:#FFD8A6;" d="M351.51,14.05v115.87c0,16.5-13.39,29.89-29.9,29.89s-29.9-13.39-29.9-29.89V14.05H351.51z"/>
	<path style="fill:#FFD8A6;" d="M411.31,50.52v88.04c0,16.51-13.39,29.9-29.89,29.9h-0.01c-16.51,0-29.9-13.39-29.9-29.9V50.52
		H411.31z"/>
</g>
<g>
	<path style="fill:#FFC173;" d="M231.91,0v129.17c0,16.52-13.4,29.91-29.9,29.91V0H231.91z"/>
	<path style="fill:#FFC173;" d="M291.71,0v115.86c0,16.51-13.39,29.9-29.9,29.9V0H291.71z"/>
	<path style="fill:#FFC173;" d="M351.51,14.05v115.87c0,16.5-13.39,29.89-29.9,29.89V14.05H351.51z"/>
	<path style="fill:#FFC173;" d="M411.31,50.52v88.04c0,16.51-13.39,29.9-29.89,29.9h-0.01V50.52H411.31z"/>
</g>
<path style="fill:#FFD8A6;" d="M283.66,258.23L280.29,269c-8.57,27.36-33.83,45.01-61.22,45.01c-5.59,0-11.27-0.73-16.91-2.27
	l-0.18-0.24L163,260.64l-62.31-81.3l17.16-127.07L163,47.09l9.1-1.04l13.67-1.57c1.28-0.14,2.57-0.22,3.85-0.22
	c15.55,0,29.3,10.78,32.76,26.3c3.36,15.11-4.03,30.56-17.92,37.41l-32.36,15.98v30.15C172.1,154.1,280.49,167.46,283.66,258.23z"/>
<path style="fill:#FFC173;" d="M283.66,258.23L280.29,269c-8.57,27.36-33.83,45.01-61.22,45.01c-5.59,0-11.27-0.73-16.91-2.27
	l-0.18-0.24L163,260.64V47.09l9.1-1.04l13.67-1.57c1.28-0.14,2.57-0.22,3.85-0.22c15.55,0,29.3,10.78,32.76,26.3
	c3.36,15.11-4.03,30.56-17.92,37.41l-32.36,15.98v30.15C172.1,154.1,280.49,167.46,283.66,258.23z"/>
<g>
</g>
<g>
</g>
<g>
</g>
<g>
</g>
<g>
</g>
<g>
</g>
<g>
</g>
<g>
</g>
<g>
</g>
<g>
</g>
<g>
</g>
<g>
</g>
<g>
</g>
<g>
</g>
<g>
</g>
</svg>
