<?xml version="1.0" encoding="iso-8859-1"?>
<!-- Generator: Adobe Illustrator 19.0.0, SVG Export Plug-In . SVG Version: 6.00 Build 0)  -->
<svg version="1.1" id="Layer_1" xmlns="http://www.w3.org/2000/svg" xmlns:xlink="http://www.w3.org/1999/xlink" x="0px" y="0px"
	 viewBox="0 0 511.999 511.999" style="enable-background:new 0 0 511.999 511.999;" xml:space="preserve">
<path style="fill:#3F54C0;" d="M437.018,74.981C388.666,26.629,324.379,0,255.999,0S123.333,26.629,74.981,74.981
	S0,187.619,0,255.999s26.628,132.668,74.981,181.019s112.639,74.981,181.019,74.981s132.667-26.628,181.019-74.981
	s74.981-112.639,74.981-181.019S485.371,123.333,437.018,74.981z"/>
<path style="fill:#5F7BF0;" d="M255.999,0C187.62,0,123.333,26.629,74.981,74.981S0,187.619,0,255.999
	s26.628,132.668,74.981,181.019s112.639,74.981,181.019,74.981L255.999,0L255.999,0z"/>
<path style="fill:#ECECEC;" d="M255.999,59.872c-108.146,0-196.129,87.983-196.129,196.129S147.854,452.13,255.999,452.13
	s196.129-87.983,196.129-196.129S364.145,59.872,255.999,59.872z"/>
<path style="fill:#FFFFFF;" d="M255.999,59.872c-108.146,0-196.129,87.983-196.129,196.129S147.854,452.13,255.999,452.13V59.872z"
	/>
<path style="fill:#FF1E1E;" d="M346.373,299.803H244.978c-9.13,0-16.532-7.402-16.532-16.532V180.995
	c0-9.13,7.402-16.532,16.532-16.532s16.532,7.402,16.532,16.532v85.745h84.863c9.13,0,16.532,7.402,16.532,16.532
	C362.905,292.401,355.503,299.803,346.373,299.803z"/>
<path style="fill:#FF7F55;" d="M255.999,299.803h-11.021c-9.13,0-16.532-7.402-16.532-16.532V180.995
	c0-9.13,7.402-16.532,16.532-16.532c4.235,0,8.098,1.593,11.023,4.211L255.999,299.803z"/>
<g>
</g>
<g>
</g>
<g>
</g>
<g>
</g>
<g>
</g>
<g>
</g>
<g>
</g>
<g>
</g>
<g>
</g>
<g>
</g>
<g>
</g>
<g>
</g>
<g>
</g>
<g>
</g>
<g>
</g>
</svg>
